<svg width="177" height="28" viewBox="0 0 177 28" fill="none" xmlns="http://www.w3.org/2000/svg">
<path d="M29.4882 10.4542C32.6645 10.0993 33.8746 8.26348 33.7475 6.45081C33.6451 4.97987 32.3376 2.66698 29.0837 3.13748C27.1489 3.41648 25.006 4.98152 24.0221 7.59487C22.6766 5.96875 20.4595 4.39546 17.8643 4.23037C12.6772 3.93486 7.08569 7.66256 5.2334 13.7263C5.16654 13.9979 5.11746 14.2736 5.08647 14.5517C2.9139 16.4684 0.145369 19.7933 9.14176e-05 24.3992C-0.00101173 24.4491 0.00787871 24.4986 0.0262379 24.5449C0.0445971 24.5913 0.0720529 24.6334 0.106984 24.669C0.141916 24.7045 0.183615 24.7327 0.229621 24.7519C0.275626 24.7711 0.325005 24.7808 0.374842 24.7806H5.21193C5.26177 24.7808 5.31114 24.771 5.35708 24.7517C5.40302 24.7324 5.44459 24.704 5.47928 24.6682C5.51398 24.6325 5.54108 24.59 5.55897 24.5435C5.57686 24.497 5.58516 24.4474 5.58338 24.3976C5.54376 23.1693 5.57018 19.2584 7.31516 16.7672C8.58392 17.7888 9.98362 18.636 11.477 19.2864C10.954 20.943 10.676 22.6672 10.6516 24.4042C10.6507 24.4537 10.6597 24.503 10.6781 24.549C10.6964 24.595 10.7238 24.6369 10.7585 24.6723C10.7932 24.7076 10.8347 24.7357 10.8804 24.7549C10.9261 24.774 10.9751 24.7839 11.0247 24.7839H17.4929C17.5396 24.7841 17.5856 24.7718 17.6261 24.7484C17.6666 24.725 17.7002 24.6912 17.7233 24.6506C17.7465 24.61 17.7585 24.5639 17.758 24.5171C17.7575 24.4703 17.7447 24.4245 17.7207 24.3844C17.3063 23.6943 16.4313 22.225 16.0137 20.6649C16.6361 20.7772 17.275 20.8746 17.9551 20.9324C20.4391 21.1368 22.9167 20.4689 24.9615 19.0438C24.945 21.1008 24.169 23.2799 23.7233 24.2556C23.6972 24.3122 23.6857 24.3744 23.6901 24.4366C23.6944 24.4987 23.7144 24.5588 23.7481 24.6112C23.7819 24.6635 23.8284 24.7065 23.8832 24.7361C23.938 24.7658 23.9994 24.781 24.0617 24.7806H30.411C30.4607 24.7804 30.5099 24.7703 30.5557 24.751C30.6015 24.7317 30.643 24.7035 30.6779 24.668C30.7127 24.6325 30.7402 24.5905 30.7587 24.5444C30.7772 24.4983 30.7864 24.4489 30.7858 24.3992C30.6966 20.0574 28.9781 17.2707 27.5203 15.676C25.5541 13.3845 26.2492 10.8157 29.4882 10.4542ZM28.7255 4.80322C28.9485 4.80322 29.1665 4.86935 29.3519 4.99325C29.5373 5.11715 29.6819 5.29325 29.7672 5.49928C29.8526 5.70532 29.8749 5.93203 29.8314 6.15075C29.7879 6.36948 29.6805 6.57039 29.5228 6.72808C29.3651 6.88577 29.1642 6.99316 28.9455 7.03667C28.7267 7.08017 28.5 7.05784 28.294 6.9725C28.088 6.88716 27.9119 6.74264 27.788 6.55721C27.6641 6.37179 27.5979 6.15379 27.5979 5.93078C27.5977 5.78264 27.6267 5.63592 27.6833 5.49903C27.7399 5.36213 27.823 5.23774 27.9277 5.13299C28.0324 5.02825 28.1568 4.9452 28.2937 4.88861C28.4306 4.83202 28.5774 4.80301 28.7255 4.80322ZM12.8357 16.2158C11.6999 15.9335 9.20377 14.2529 8.692 13.7395C9.01062 11.9004 11.0709 9.77734 12.2645 8.83468C13.6657 7.73703 15.3894 7.13133 17.1693 7.11116C19.5152 7.17555 20.821 8.71252 21.6267 9.76743C21.7373 9.91106 21.7059 10.1455 21.526 10.1669C19.7265 10.3998 18.0017 11.0315 16.4776 12.0159C14.9934 13.0114 13.7734 14.5022 12.8357 16.2158ZM20.5718 18.1655C18.8928 18.5997 16.641 18.1869 16.428 17.454C16.2151 16.721 18.0228 15.1427 20.8409 14.7201C22.8648 14.4196 24.032 14.7548 24.2879 15.4382C24.5983 16.2719 22.8236 17.5827 20.5718 18.1655Z" fill="#16AF8E"></path>
<path d="M46.7815 0L46.7815 27.8592" stroke="#A4A4A4" stroke-width="1.08542"></path>
<g clip-path="url(#clip0_2730_416)">
<path d="M91.556 10.7943C91.9412 9.35114 91.7821 8.24695 91.0783 7.48172C90.3746 6.71649 89.1443 6.33131 87.3878 6.32617H80.6563L76.5984 21.5512H79.8575L81.4986 15.3882H83.6508C84.0446 15.3685 84.4369 15.4489 84.7911 15.6219C84.9349 15.7119 85.0547 15.8351 85.1406 15.9814C85.2265 16.1275 85.2758 16.2923 85.2843 16.4617L85.8724 21.5512H89.3652L88.7951 16.8237C88.6821 15.7683 88.1967 15.1469 87.3543 14.9594C88.3736 14.6783 89.3036 14.1408 90.0562 13.3981C90.7833 12.6824 91.3018 11.7823 91.556 10.7943ZM88.4356 10.8482C88.2951 11.4724 87.9127 12.0154 87.3723 12.3581C86.8586 12.6817 86.1087 12.8409 85.1558 12.8409H82.1305L83.1937 8.86324H86.2217C87.1719 8.86324 87.8244 9.02503 88.1839 9.34601C88.5434 9.667 88.6205 10.1754 88.4356 10.8482Z" fill="#0C2651"></path>
<path d="M100.966 10.6684L100.553 12.2091C100.38 11.6585 100.016 11.1882 99.5252 10.8841C98.9533 10.5409 98.2939 10.3713 97.6273 10.3962C96.6922 10.3964 95.7732 10.6407 94.9615 11.1049C94.0779 11.6116 93.3148 12.3037 92.7245 13.1336C92.074 14.0308 91.5975 15.0421 91.3196 16.1148C91.0282 17.0697 90.9666 18.0797 91.1398 19.0628C91.2721 19.8393 91.6876 20.5391 92.3058 21.0272C92.9779 21.5077 93.792 21.7483 94.6173 21.7104C95.3543 21.712 96.0829 21.5542 96.7531 21.248C97.4234 20.9416 98.0194 20.4941 98.5005 19.9359L98.0742 21.5434H101.251L104.148 10.6684H100.966ZM99.5228 16.061C99.3262 16.9464 98.8889 17.7605 98.2591 18.4132C97.9879 18.6786 97.6665 18.8875 97.3138 19.0277C96.961 19.1678 96.584 19.2366 96.2045 19.2297C95.3955 19.2297 94.851 18.9729 94.5582 18.4259C94.2655 17.8791 94.2577 17.1164 94.5249 16.1148C94.728 15.2215 95.1721 14.4009 95.809 13.7422C96.0811 13.4687 96.405 13.2522 96.7618 13.1054C97.1185 12.9586 97.5009 12.8843 97.8867 12.887C98.6777 12.887 99.2171 13.1618 99.4944 13.7088C99.7719 14.2557 99.8001 15.0287 99.5278 16.0584L99.5228 16.061Z" fill="#0C2651"></path>
<path d="M115.482 10.6763H106.331L105.656 13.2133H110.982L103.979 19.3224L103.38 21.5642H112.832L113.507 19.0271H107.793L114.912 12.8307L115.482 10.6763Z" fill="#0C2651"></path>
<path d="M125.49 11.0742C124.641 10.5887 123.671 10.352 122.694 10.3911C121.591 10.3816 120.499 10.6148 119.496 11.0742C118.521 11.5289 117.664 12.203 116.992 13.0438C116.29 13.9257 115.784 14.9461 115.505 16.0379C115.205 17.0089 115.168 18.042 115.397 19.032C115.607 19.8539 116.13 20.5614 116.853 21.0042C117.59 21.4579 118.531 21.6847 119.678 21.6847C120.77 21.6943 121.849 21.4619 122.84 21.0042C123.812 20.5493 124.665 19.8742 125.331 19.032C126.034 18.1507 126.542 17.1302 126.821 16.0379C127.121 15.0669 127.157 14.0335 126.926 13.0438C126.724 12.2247 126.208 11.5175 125.49 11.0742ZM123.636 16.0327C123.351 17.101 122.932 17.9022 122.367 18.4312C121.822 18.9505 121.094 19.2339 120.341 19.2195C118.68 19.2195 118.133 18.1573 118.7 16.0327C118.979 14.9783 119.407 14.1831 119.984 13.6472C120.536 13.1191 121.275 12.8302 122.039 12.8435C122.83 12.8435 123.369 13.1003 123.646 13.6472C123.924 14.1942 123.916 14.9774 123.636 16.0327Z" fill="#0C2651"></path>
<path d="M160.085 10.6684L159.672 12.2091C159.499 11.6585 159.135 11.1882 158.644 10.8841C158.073 10.5378 157.414 10.3655 156.746 10.3885C155.81 10.3905 154.89 10.6375 154.078 11.1049C153.194 11.6115 152.43 12.3036 151.838 13.1336C151.189 14.0314 150.712 15.0425 150.433 16.1149C150.145 17.0701 150.083 18.0796 150.254 19.0628C150.386 19.8393 150.801 20.5392 151.42 21.0273C152.101 21.5117 152.925 21.7523 153.759 21.7104C154.48 21.7076 155.192 21.5518 155.847 21.2532C156.524 20.9496 157.125 20.4997 157.607 19.9359L157.18 21.5434H160.357L163.257 10.6684H160.085ZM158.634 16.061C158.438 16.9462 158.002 17.7602 157.373 18.4132C157.101 18.6778 156.78 18.8861 156.427 19.0264C156.075 19.1665 155.698 19.2356 155.318 19.2297C154.507 19.2297 153.962 18.9729 153.67 18.426C153.377 17.8791 153.372 17.1164 153.636 16.1149C153.84 15.2219 154.284 14.4016 154.92 13.7422C155.193 13.4689 155.517 13.2525 155.875 13.1057C156.232 12.9589 156.614 12.8846 157.001 12.8871C157.792 12.8871 158.328 13.161 158.608 13.7088C158.906 14.2403 158.914 15.0287 158.634 16.0584V16.061Z" fill="#0C2651"></path>
<path d="M136.799 13.5959L137.61 10.6352C137.268 10.4803 136.894 10.4073 136.519 10.422C135.785 10.4229 135.063 10.6121 134.423 10.9716C133.839 11.2913 133.333 11.7348 132.939 12.2709L133.357 10.6763H130.183L127.26 21.5512H130.481L131.993 15.8736C132.171 15.1161 132.585 14.435 133.177 13.9298C133.786 13.4544 134.542 13.2081 135.314 13.2339C135.831 13.2317 136.341 13.356 136.799 13.5959Z" fill="#0C2651"></path>
<path d="M148.022 11.128C147.365 10.6259 146.552 10.3705 145.726 10.4064C144.922 10.4073 144.13 10.5992 143.415 10.9662C142.698 11.3186 142.08 11.8436 141.617 12.4941L141.63 12.4196L142.171 10.676H139.013L138.206 13.6984C138.206 13.7318 138.188 13.7678 138.18 13.8012L134.867 26.2554H138.103L139.775 19.9795C139.935 20.5332 140.303 21.0035 140.803 21.2916C141.382 21.6244 142.043 21.7882 142.711 21.7641C143.649 21.7667 144.573 21.5336 145.397 21.0862C146.275 20.6026 147.032 19.9277 147.614 19.1115C148.253 18.2188 148.721 17.2147 148.993 16.1508C149.286 15.1817 149.353 14.1582 149.188 13.1592C149.053 12.3652 148.64 11.6452 148.022 11.128ZM145.734 16.0995C145.536 16.9709 145.102 17.7707 144.478 18.4105C143.926 18.9385 143.187 19.2265 142.423 19.2117C141.627 19.2117 141.088 18.9369 140.803 18.3951C140.518 17.8533 140.502 17.0726 140.782 16.0429C140.982 15.1506 141.427 14.3317 142.066 13.6779C142.338 13.4127 142.659 13.2036 143.012 13.0626C143.364 12.9216 143.741 12.8514 144.121 12.8562C144.891 12.8562 145.428 13.1438 145.708 13.7113C145.988 14.2788 146.006 15.0825 145.734 16.0995Z" fill="#0C2651"></path>
<path d="M176.766 10.314H173.427L172.914 11.3873C172.872 11.4413 172.834 11.4952 172.788 11.562L172.734 11.6493L168.624 17.3961L167.772 10.676H164.402L166.115 20.9835L162.327 26.2554H165.571L166.508 24.9175C166.537 24.8764 166.565 24.843 166.59 24.7995L167.687 23.2356L167.723 23.1945L172.621 16.2072L176.766 10.314Z" fill="#0C2651"></path>
<path d="M68.349 8.06457L67.373 11.6185L72.8794 8.04659L69.2838 21.5511H72.9333L78.2471 1.60376L68.349 8.06457Z" fill="#3395FF"></path>
<path d="M62.4164 15.871L60.9011 21.5511H68.3876L71.4516 9.99561L62.4164 15.871Z" fill="#0C2651"></path>
</g>
<defs>
<clipPath id="clip0_2730_416">
<rect width="116" height="24.6517" fill="white" transform="translate(60.9011 1.60376)"></rect>
</clipPath>
</defs>
</svg>