<svg width="112" height="73" viewBox="0 0 112 73" fill="none" xmlns="http://www.w3.org/2000/svg">
<rect x="0.5" y="0.5" width="111" height="72" rx="8" stroke="#F3F4F6"/>
<g clip-path="url(#clip0_6_6)">
<g clip-path="url(#clip1_6_6)">
<path d="M65.8744 32.2227C64.2359 33.2185 63.2238 34.9256 63.2238 36.8224C63.2238 38.9563 64.525 40.9005 66.5009 41.7066C66.1154 42.9395 65.537 44.0777 64.8142 45.1209C63.7539 46.5908 62.6455 48.1083 61.0069 48.1083C59.3684 48.1083 58.8864 47.1599 56.9587 47.1599C55.0792 47.1599 54.4045 48.1557 52.8623 48.1557C51.3202 48.1557 50.2599 46.7805 49.0551 45.0734C47.4647 42.7025 46.5491 39.9521 46.5009 37.0595C46.5009 32.365 49.5852 29.8517 52.6696 29.8517C54.3081 29.8517 55.6575 30.8949 56.6696 30.8949C57.6334 30.8949 59.1756 29.8043 61.0069 29.8043C62.9347 29.7569 64.7659 30.6578 65.8744 32.2227ZM60.1394 27.8127C60.9588 26.8643 61.3925 25.6788 61.4406 24.4459C61.4406 24.3036 61.4406 24.1139 61.3925 23.9717C59.9949 24.1139 58.6937 24.7778 57.778 25.821C56.9587 26.722 56.4768 27.8601 56.4286 29.093C56.4286 29.2352 56.4286 29.3775 56.4768 29.5198C56.5732 29.5198 56.7178 29.5672 56.8141 29.5672C58.1154 29.4723 59.3201 28.8085 60.1394 27.8127Z" fill="black"/>
</g>
</g>
<defs>
<clipPath id="clip0_6_6">
<rect width="20" height="24.5872" fill="white" transform="translate(46.5009 23.9717)"/>
</clipPath>
<clipPath id="clip1_6_6">
<rect width="20" height="24.5871" fill="white" transform="translate(46.5009 23.9717)"/>
</clipPath>
</defs>
</svg>
