<svg width="112" height="73" viewBox="0 0 112 73" fill="none" xmlns="http://www.w3.org/2000/svg">
<rect x="0.5" y="0.5" width="111" height="72" rx="8" stroke="#F3F4F6"/>
<g clip-path="url(#clip0_6_11)">
<path d="M66.1802 36.7417C66.1802 36.0267 66.116 35.3391 65.9969 34.6791H56.5002V38.5796H61.9269C61.6931 39.84 60.9827 40.9079 59.9148 41.6229V44.1529H63.1735C65.0802 42.3975 66.1802 39.8125 66.1802 36.7417Z" fill="#4285F4"/>
<path d="M56.5007 46.5955C59.2232 46.5955 61.5057 45.6926 63.174 44.1526L59.9153 41.6226C59.0124 42.2276 57.8574 42.5851 56.5007 42.5851C53.8745 42.5851 51.6516 40.8114 50.8587 38.428H47.4899V41.0405C49.1491 44.336 52.5591 46.5955 56.5007 46.5955Z" fill="#34A853"/>
<path d="M50.8587 38.4284C50.6571 37.8234 50.5425 37.1772 50.5425 36.5126C50.5425 35.848 50.6571 35.2018 50.8587 34.5968V31.9843H47.49C46.7841 33.3894 46.4169 34.9402 46.4175 36.5126C46.4175 38.1397 46.8071 39.6797 47.49 41.0409L50.8587 38.4284Z" fill="#FBBC05"/>
<path d="M56.5003 30.4399C57.9806 30.4399 59.3097 30.9486 60.3547 31.9477L63.2466 29.0558C61.5004 27.4288 59.218 26.4297 56.5003 26.4297C52.5589 26.4297 49.1491 28.6892 47.4901 31.9844L50.8586 34.5967C51.6514 32.2135 53.8742 30.4399 56.5003 30.4399Z" fill="#EA4335"/>
</g>
<defs>
<clipPath id="clip0_6_11">
<rect width="21.9986" height="21.9986" fill="white" transform="translate(45.5009 25.513)"/>
</clipPath>
</defs>
</svg>
