<svg width="112" height="73" viewBox="0 0 112 73" fill="none" xmlns="http://www.w3.org/2000/svg">
<rect x="0.5" y="0.5" width="111" height="72" rx="8" stroke="#F3F4F6"/>
<g clip-path="url(#clip0_6_85)">
<path d="M26.5 31.7932V29.5004H28.8821V31.7932H26.5ZM26.5 43.4521V34.0846H28.8821V43.4521H26.5ZM40.8422 31.7932C38.156 31.7932 35.9794 33.8895 35.9794 36.4736C35.9794 39.0591 38.156 41.1554 40.8422 41.1554V43.4481C36.841 43.4481 33.5973 40.3248 33.5973 36.4736C33.5973 32.6224 36.841 29.5004 40.8422 29.5004C44.8447 29.5004 48.087 32.6224 48.087 36.4736H45.7063C45.7063 33.8895 43.5284 31.7932 40.8422 31.7932ZM55.1851 36.4732C55.1851 39.0587 57.363 41.155 60.0478 41.155C62.734 41.155 64.912 39.0587 64.912 36.4732C64.912 33.8891 62.734 31.7928 60.0478 31.7928C57.363 31.7928 55.1851 33.8891 55.1851 36.4732ZM52.803 36.4732C52.803 32.6221 56.0467 29.5 60.0478 29.5C64.049 29.5 67.2941 32.6221 67.2941 36.4732C67.2941 40.3257 64.049 43.4477 60.0478 43.4477C56.0467 43.4477 52.803 40.3257 52.803 36.4732ZM74.391 36.4732C74.391 39.0587 76.5676 41.155 79.2538 41.155C81.9399 41.155 84.1166 39.0587 84.1166 36.4732C84.1166 33.8891 81.9399 31.7928 79.2538 31.7928C76.5676 31.7928 74.391 33.8891 74.391 36.4732ZM79.2538 29.5C82.8796 29.5 85.885 32.0644 86.4164 35.4119C86.4712 35.7586 86.5 36.1133 86.5 36.4745C86.5 40.3257 83.255 43.4477 79.2538 43.4477C75.2526 43.4477 72.0076 40.3257 72.0076 36.4732C72.0075 32.6221 75.2526 29.5 79.2538 29.5ZM40.686 37.9419L42.375 36.3242L48.2857 42.0436L46.5967 43.66L40.686 37.9419Z" fill="black"/>
</g>
<defs>
<clipPath id="clip0_6_85">
<rect width="60" height="14.16" fill="white" transform="translate(26.5 29.5)"/>
</clipPath>
</defs>
</svg>
