<svg width="112" height="73" viewBox="0 0 112 73" fill="none" xmlns="http://www.w3.org/2000/svg">
<rect x="0.5" y="0.5" width="111" height="72" rx="8" stroke="#F3F4F6"/>
<g clip-path="url(#clip0_6_43)">
<path d="M64.9937 27.0201C62.7437 24.7701 59.4866 24.513 55.5009 24.513C51.5151 24.513 48.258 24.7701 45.9866 27.0201C43.7366 29.2916 43.5009 32.5487 43.5009 36.5344C43.5009 40.5201 43.7366 43.7773 45.9866 46.0273C48.258 48.2773 51.5151 48.513 55.5009 48.513C59.4866 48.513 62.7437 48.2773 65.0151 46.0273C67.2651 43.7559 67.5009 40.4987 67.5009 36.5344C67.5009 32.5487 67.2651 29.2916 64.9937 27.0201Z" fill="#FF6900"/>
<path d="M62.5508 31.9275C62.6365 31.9275 62.7008 31.9918 62.7008 32.0775V40.9704C62.7008 41.0561 62.6365 41.1204 62.5508 41.1204H60.6008C60.5151 41.1204 60.4508 41.0561 60.4508 40.9704V32.0775C60.4508 31.9918 60.5151 31.9275 60.6008 31.9275H62.5508Z" fill="white"/>
<path d="M54.0866 31.9274C55.5651 31.9274 57.0866 31.9917 57.858 32.7631C58.608 33.5131 58.6937 34.9917 58.6937 36.4488V40.9917C58.6937 41.0774 58.6294 41.1417 58.5437 41.1417H56.5723C56.4866 41.1417 56.4223 41.0774 56.4223 40.9917V36.3417C56.4223 35.5274 56.3794 34.7131 55.9508 34.2846C55.5866 33.9203 54.9223 33.8346 54.2366 33.8346H50.7223C50.6366 33.8346 50.5723 33.8988 50.5723 33.9846V40.9703C50.5723 41.056 50.508 41.1203 50.4223 41.1203H48.4723C48.3866 41.1203 48.3223 41.056 48.3223 40.9703V32.0774C48.3223 31.9917 48.3866 31.9274 48.4723 31.9274H54.0866Z" fill="white"/>
<path d="M54.5151 35.4632C54.6008 35.4632 54.6651 35.5275 54.6651 35.6132V40.9703C54.6651 41.0561 54.6008 41.1203 54.5151 41.1203H52.458C52.3723 41.1203 52.308 41.0561 52.308 40.9703V35.6132C52.308 35.5275 52.3723 35.4632 52.458 35.4632H54.5151Z" fill="white"/>
</g>
<defs>
<clipPath id="clip0_6_43">
<rect width="24" height="24" fill="white" transform="translate(43.5009 24.513)"/>
</clipPath>
</defs>
</svg>
