<svg width="112" height="73" viewBox="0 0 112 73" fill="none" xmlns="http://www.w3.org/2000/svg">
<rect x="0.5" y="0.5" width="111" height="72" rx="8" stroke="#F3F4F6"/>
<g clip-path="url(#clip0_6_53)">
<path d="M65.7179 33.3051C65.093 33.3043 64.482 33.489 63.9621 33.8358C63.4422 34.1825 63.0368 34.6758 62.7972 35.2531C62.5576 35.8304 62.4945 36.4658 62.616 37.079C62.7375 37.6922 63.038 38.2556 63.4796 38.6978C63.9212 39.1401 64.484 39.4414 65.0968 39.5636C65.7096 39.6857 66.3449 39.6233 66.9222 39.3843C67.4995 39.1452 67.993 38.7401 68.3402 38.2204C68.6874 37.7007 68.8727 37.0896 68.8726 36.4645C68.8723 35.6272 68.5399 34.8243 67.9485 34.232C67.357 33.6397 66.5548 33.3063 65.7179 33.3051ZM65.7179 38.441C65.3271 38.4415 64.9449 38.326 64.6197 38.1091C64.2946 37.8923 64.041 37.5838 63.8911 37.2228C63.7412 36.8617 63.7017 36.4643 63.7777 36.0808C63.8536 35.6973 64.0415 35.3449 64.3177 35.0683C64.5939 34.7917 64.9458 34.6032 65.3291 34.5267C65.7124 34.4503 66.1097 34.4893 66.4708 34.6388C66.8319 34.7883 67.1405 35.0416 67.3577 35.3666C67.5749 35.6916 67.6908 36.0738 67.6908 36.4648C67.6908 36.9885 67.483 37.4907 67.1131 37.8613C66.7432 38.2318 66.2414 38.4403 65.7179 38.441Z" fill="#001427"/>
<path d="M61.8648 38.599H62.1163V39.7829H61.8648C61.2108 39.7812 60.5841 39.5203 60.122 39.0574C59.6599 38.5944 59.4001 37.967 59.3994 37.3128V31.8843H60.5812V33.4631H62.1075V34.6469H60.5812V37.3128C60.5816 37.6535 60.717 37.9802 60.9577 38.2213C61.1984 38.4624 61.5248 38.5982 61.8654 38.599" fill="#001427"/>
<path d="M76.302 33.3051C75.6772 33.3043 75.0662 33.489 74.5463 33.8358C74.0264 34.1825 73.621 34.6758 73.3813 35.2531C73.1417 35.8304 73.0786 36.4658 73.2001 37.079C73.3215 37.6922 73.6221 38.2556 74.0637 38.6978C74.5053 39.1401 75.0681 39.4414 75.6809 39.5636C76.2937 39.6857 76.929 39.6233 77.5063 39.3843C78.0837 39.1452 78.5772 38.7401 78.9244 38.2204C79.2715 37.7007 79.4568 37.0896 79.4568 36.4645C79.4564 35.6272 79.1241 34.8243 78.5326 34.232C77.9411 33.6397 77.1389 33.3063 76.302 33.3051ZM76.302 38.441C75.9112 38.4415 75.5291 38.326 75.2039 38.1091C74.8787 37.8923 74.6251 37.5838 74.4752 37.2228C74.3254 36.8617 74.2859 36.4643 74.3618 36.0808C74.4377 35.6973 74.6257 35.3449 74.9018 35.0683C75.178 34.7917 75.53 34.6032 75.9132 34.5267C76.2965 34.4503 76.6938 34.4893 77.0549 34.6388C77.416 34.7883 77.7247 35.0416 77.9418 35.3666C78.159 35.6916 78.2749 36.0738 78.2749 36.4648C78.275 36.9885 78.0673 37.4908 77.6973 37.8614C77.3274 38.2319 76.8255 38.4404 76.302 38.441Z" fill="#001427"/>
<path d="M85.3779 33.3051C84.8702 33.3044 84.3698 33.4261 83.9191 33.66C83.4684 33.8939 83.0808 34.2331 82.789 34.6487C82.4972 35.0644 82.3098 35.5443 82.2428 36.0477C82.1758 36.5512 82.2311 37.0634 82.404 37.541C82.5769 38.0185 82.8624 38.4473 83.2362 38.7911C83.61 39.1348 84.0611 39.3833 84.5513 39.5155C85.0415 39.6478 85.5563 39.6598 86.0521 39.5507C86.548 39.4416 87.0103 39.2145 87.3998 38.8887V39.5131H88.5304V36.5563C88.5304 36.525 88.5329 36.4954 88.5329 36.4645C88.5326 35.6272 88.2002 34.8243 87.6087 34.232C87.0173 33.6397 86.2148 33.3063 85.3779 33.3051ZM85.3782 38.441C84.9874 38.4415 84.6052 38.326 84.28 38.1091C83.9548 37.8923 83.7013 37.5838 83.5514 37.2228C83.4015 36.8617 83.362 36.4643 83.438 36.0808C83.5139 35.6973 83.7018 35.3449 83.978 35.0683C84.2541 34.7917 84.6061 34.6032 84.9894 34.5267C85.3726 34.4503 85.77 34.4893 86.1311 34.6388C86.4922 34.7883 86.8008 35.0416 87.018 35.3666C87.2352 35.6916 87.3511 36.0738 87.3511 36.4648C87.3512 36.9885 87.1434 37.4908 86.7735 37.8614C86.4036 38.2319 85.9017 38.4404 85.3782 38.441Z" fill="#001427"/>
<path d="M72.1297 33.3051H72.6914V34.4898H72.1297C71.7891 34.4907 71.4627 34.6265 71.222 34.8676C70.9813 35.1087 70.8459 35.4353 70.8455 35.7761V39.5365H69.6637V35.7751C69.6644 35.1209 69.9243 34.4936 70.3864 34.0307C70.8485 33.5677 71.4751 33.3068 72.129 33.3051" fill="#001427"/>
<path d="M81.4321 31.7261H80.2478V39.5131H81.4321V31.7261Z" fill="#001427"/>
<path d="M51.5069 35.9334V39.6894H50.3251V35.9334C50.3251 35.5927 50.1898 35.2659 49.949 35.025C49.7082 34.7841 49.3815 34.6487 49.0409 34.6487C48.7004 34.6487 48.3737 34.7841 48.1329 35.025C47.8921 35.2659 47.7568 35.5927 47.7568 35.9334V39.6894H46.575V35.9334C46.5776 35.763 46.5464 35.5937 46.483 35.4355C46.4197 35.2773 46.3255 35.1333 46.206 35.0118C46.0864 34.8904 45.944 34.7939 45.7868 34.7281C45.6297 34.6623 45.461 34.6284 45.2907 34.6284C45.1203 34.6284 44.9516 34.6623 44.7945 34.7281C44.6374 34.7939 44.4949 34.8904 44.3753 35.0118C44.2558 35.1333 44.1617 35.2773 44.0983 35.4355C44.0349 35.5937 44.0037 35.763 44.0063 35.9334V39.6894H42.8245V35.9334C42.8227 35.4285 42.976 34.9353 43.2638 34.5205C43.5515 34.1057 43.9597 33.7894 44.4331 33.6145C44.9065 33.4395 45.4222 33.4143 45.9104 33.5424C46.3985 33.6704 46.8356 33.9455 47.1623 34.3303C47.4899 33.9459 47.9275 33.6713 48.416 33.5436C48.9045 33.4158 49.4204 33.441 49.8942 33.6157C50.3679 33.7905 50.7767 34.1064 51.0654 34.5208C51.354 34.9352 51.5087 35.4283 51.5085 35.9334" fill="#001427"/>
<path d="M55.4621 33.4634C54.8369 33.4608 54.2249 33.6439 53.7038 33.9895C53.1827 34.3351 52.7758 34.8277 52.5347 35.4048C52.2937 35.9819 52.2292 36.6176 52.3496 37.2314C52.47 37.8452 52.7698 38.4095 53.211 38.8527C53.6522 39.2959 54.2149 39.5981 54.828 39.7211C55.441 39.8441 56.0767 39.7823 56.6546 39.5435C57.2325 39.3048 57.7266 38.8998 58.0742 38.3799C58.4219 37.86 58.6074 37.2486 58.6074 36.6231C58.6067 35.7876 58.2755 34.9863 57.6862 34.3943C57.0969 33.8022 56.2973 33.4676 55.4621 33.4634ZM55.4621 38.5993C55.0713 38.5998 54.6891 38.4843 54.3639 38.2674C54.0388 38.0506 53.7852 37.7421 53.6353 37.3811C53.4854 37.02 53.4459 36.6226 53.5219 36.2391C53.5978 35.8556 53.7857 35.5032 54.0619 35.2266C54.3381 34.95 54.69 34.7615 55.0733 34.685C55.4566 34.6086 55.8539 34.6476 56.215 34.7971C56.5761 34.9466 56.8847 35.1999 57.1019 35.5249C57.3191 35.8499 57.435 36.2321 57.435 36.6231C57.4351 37.1468 57.2273 37.6491 56.8574 38.0197C56.4875 38.3902 55.9856 38.5987 55.4621 38.5993Z" fill="#001427"/>
<path d="M36.0777 40.2515C35.8838 39.3785 35.5772 38.5344 35.1655 37.7405C35.034 37.4745 34.8333 37.2489 34.5844 37.0874C34.3356 36.9259 34.0479 36.8344 33.7515 36.8227C33.3043 36.832 32.9183 37.0765 32.4371 37.7521C32.1572 38.2125 31.9107 38.6924 31.6996 39.1882C31.6996 39.1882 31.5255 38.7851 31.323 38.3843C31.2184 38.1645 31.098 37.9527 30.9625 37.7505C30.4813 37.0749 30.0928 36.8305 29.6484 36.8211C29.3523 36.8328 29.0648 36.924 28.8161 37.085C28.5673 37.246 28.3664 37.4711 28.2344 37.7365C27.823 38.5313 27.5166 39.3762 27.3229 40.2499H26.8045L29.5561 31.2066L31.6822 38.27L31.6981 38.2816L31.7121 38.27L33.8383 31.2066L36.5923 40.2499L36.0777 40.2515ZM31.7003 29.4424C30.2804 29.4409 28.8919 29.8608 27.7106 30.6489C26.5292 31.437 25.6081 32.5579 25.0637 33.8698C24.5193 35.1817 24.3761 36.6257 24.6522 38.0191C24.9283 39.4125 25.6113 40.6926 26.6148 41.6976C27.6183 42.7025 28.8972 43.3872 30.2897 43.6648C31.6823 43.9425 33.1258 43.8007 34.4378 43.2575C35.7498 42.7142 36.8712 41.7939 37.6602 40.6129C38.4492 39.4319 38.8704 38.0433 38.8704 36.6229C38.8712 35.6803 38.6863 34.7468 38.3264 33.8758C37.9664 33.0047 37.4384 32.2132 36.7726 31.5463C36.1067 30.8795 35.316 30.3504 34.4457 29.9894C33.5754 29.6284 32.6424 29.4425 31.7003 29.4424Z" fill="#001427"/>
</g>
<defs>
<clipPath id="clip0_6_53">
<rect width="64" height="14.361" fill="white" transform="translate(24.5326 29.4423)"/>
</clipPath>
</defs>
</svg>
