<svg width="112" height="73" viewBox="0 0 112 73" fill="none" xmlns="http://www.w3.org/2000/svg">
<rect x="0.5" y="0.5" width="111" height="72" rx="8" stroke="#F3F4F6"/>
<g clip-path="url(#clip0_6_36)">
<path fill-rule="evenodd" clip-rule="evenodd" d="M34.9048 38.6582C32.1823 38.6274 30.4189 37.334 30.4189 35.3785C30.4189 33.423 32.1823 32.1296 34.9048 32.0988C37.6272 32.1296 39.3906 33.423 39.3906 35.3785C39.3906 37.334 37.6272 38.6428 34.9048 38.6582ZM34.9976 30.5128C34.9976 30.5128 34.9357 30.5128 34.9202 30.5128C34.8893 30.5128 34.8429 30.5128 34.8429 30.5128C31.0995 30.5744 28.5009 32.5761 28.5009 35.3785C28.5009 38.1808 31.0995 40.1825 34.8274 40.2441C34.8274 40.2441 34.8893 40.2441 34.9048 40.2441C34.9357 40.2441 34.9821 40.2441 34.9821 40.2441C38.71 40.1979 41.3086 38.1808 41.3086 35.3785C41.3086 32.5761 38.71 30.5744 34.9976 30.5128Z" fill="#046A38"/>
<path fill-rule="evenodd" clip-rule="evenodd" d="M76.097 38.6582C73.3745 38.6274 71.6111 37.334 71.6111 35.3785C71.6111 33.423 73.3745 32.1296 76.097 32.0988C78.8194 32.1296 80.5828 33.423 80.5828 35.3785C80.5828 37.334 78.8194 38.6428 76.097 38.6582ZM76.1743 30.5129C76.1743 30.5129 76.1124 30.5129 76.097 30.5129C76.066 30.5129 76.0196 30.5129 76.0196 30.5129C72.2917 30.5745 69.6931 32.5762 69.6931 35.3785C69.6931 38.1809 72.2917 40.1826 76.0196 40.2442C76.0196 40.2442 76.0815 40.2442 76.097 40.2442C76.1279 40.2442 76.1743 40.2442 76.1743 40.2442C79.9022 40.1826 82.5008 38.1809 82.5008 35.3785C82.5008 32.5762 79.9022 30.5745 76.1743 30.5129Z" fill="#046A38"/>
<path fill-rule="evenodd" clip-rule="evenodd" d="M62.3919 38.6582C59.6695 38.6274 57.9061 37.334 57.9061 35.3785C57.9061 33.423 59.6695 32.1296 62.3919 32.0988C65.1144 32.1296 66.8778 33.423 66.8778 35.3785C66.8778 37.334 65.1144 38.6428 62.3919 38.6582ZM62.4693 30.5129C62.4693 30.5129 62.4074 30.5129 62.3919 30.5129C62.361 30.5129 62.3146 30.5129 62.3146 30.5129C60.5357 30.5437 59.0198 31.0056 57.9216 31.7909V30.9748H55.988V43.2929H57.9216V38.9662C59.0198 39.7514 60.5512 40.2288 62.3146 40.2442C62.3146 40.2442 62.3765 40.2442 62.3919 40.2442C62.4229 40.2442 62.4693 40.2442 62.4693 40.2442C66.1971 40.1826 68.7958 38.1809 68.7958 35.3785C68.7958 32.5762 66.1971 30.5745 62.4693 30.5129Z" fill="#046A38"/>
<path fill-rule="evenodd" clip-rule="evenodd" d="M48.6561 38.6582C45.9337 38.6274 44.1703 37.334 44.1703 35.3785C44.1703 33.423 45.9337 32.1296 48.6561 32.0988C51.3785 32.1296 53.1419 33.423 53.1419 35.3785C53.1419 37.334 51.3785 38.6428 48.6561 38.6582ZM48.7335 30.5129C48.7335 30.5129 48.6716 30.5129 48.6561 30.5129C48.6252 30.5129 48.5788 30.5129 48.5788 30.5129C46.7999 30.5437 45.284 31.0056 44.1858 31.7909V30.9748H42.2368V43.2929H44.1703V38.9662C45.2686 39.7514 46.7999 40.2288 48.5633 40.2442C48.5633 40.2442 48.6252 40.2442 48.6407 40.2442C48.6716 40.2442 48.718 40.2442 48.718 40.2442C52.4459 40.1826 55.0445 38.1809 55.0445 35.3785C55.0445 32.5762 52.4613 30.5745 48.7335 30.5129Z" fill="#046A38"/>
</g>
<defs>
<clipPath id="clip0_6_36">
<rect width="54" height="12.78" fill="white" transform="translate(28.5009 30.5128)"/>
</clipPath>
</defs>
</svg>
