<svg width="112" height="73" viewBox="0 0 112 73" fill="none" xmlns="http://www.w3.org/2000/svg">
<rect x="0.5" y="0.5" width="111" height="72" rx="8" stroke="#F3F4F6"/>
<g clip-path="url(#clip0_6_19)">
<g clip-path="url(#clip1_6_19)">
<path d="M26.9825 34.2143C26.9362 34.0405 26.9478 33.8667 26.971 33.7689C27.0288 33.4973 27.2255 33.204 27.7925 33.204C28.3248 33.204 28.6256 33.5082 28.6256 33.9753C28.6256 34.1274 28.6256 34.4967 28.6256 34.4967H30.8704V33.8992C30.8819 32.0526 29.1116 31.7593 27.8388 31.7593C26.242 31.7593 24.9345 32.259 24.6915 33.6385C24.6221 34.0187 24.6105 34.3555 24.7146 34.7791C25.108 36.5063 28.3132 37.006 28.776 38.1031C28.8686 38.3095 28.8339 38.5702 28.7992 38.7332C28.7297 39.0156 28.5215 39.3089 27.9198 39.3089C27.3528 39.3089 27.0172 39.0048 27.0172 38.5377V37.723H24.5873V38.3747C24.5873 40.2648 26.1726 40.8297 27.8619 40.8297C29.4934 40.8297 30.8241 40.3083 31.0439 38.8961C31.1481 38.1683 31.0671 37.6904 31.0324 37.5166C30.6621 35.7242 27.2371 35.2028 26.9825 34.2143ZM56.2918 34.2251C56.257 34.0622 56.2686 33.8775 56.2801 33.7906C56.3496 33.519 56.5347 33.2258 57.1017 33.2258C57.6224 33.2258 57.9232 33.5299 57.9232 33.9862C57.9232 34.1382 57.9232 34.5076 57.9232 34.5076H60.1449V33.921C60.1449 32.096 58.4092 31.8136 57.148 31.8136C55.5628 31.8136 54.2668 32.3024 54.0239 33.6711C53.966 34.0405 53.9429 34.3772 54.047 34.8009C54.4288 36.5063 57.5992 37.006 58.0621 38.0923C58.1431 38.2987 58.12 38.5594 58.0737 38.7115C58.0043 38.9939 57.8075 39.2763 57.2058 39.2763C56.6504 39.2763 56.3033 38.9722 56.3033 38.5159V37.7012H53.9082V38.3421C53.9082 40.2105 55.4702 40.7754 57.148 40.7754C58.7564 40.7754 60.087 40.254 60.2953 38.8635C60.3994 38.1357 60.3184 37.6686 60.2837 37.4948C59.925 35.7351 56.5463 35.2136 56.2918 34.2251ZM76.7492 38.8418L74.6317 32.0308H71.2877V40.4061H73.4978L73.3705 33.3778L75.6499 40.4061H78.8551V32.0308H76.6335L76.7492 38.8418ZM34.2375 32.0308L32.5597 40.493H34.9896L36.2508 32.6609L37.4774 40.493H39.8957L38.2411 32.0308H34.2375ZM47.8449 32.0308L46.711 38.6463L45.577 32.0308H41.8975L41.7008 40.493H43.9571L44.0149 32.6609L45.5655 40.493H47.8449L49.3955 32.6609L49.4533 40.493H51.7096L51.513 32.0308H47.8449ZM68.7884 32.0308H66.5089V38.2878C66.5089 38.3964 66.5089 38.5159 66.4858 38.6137C66.4395 38.8201 66.2544 39.2329 65.618 39.2329C64.9931 39.2329 64.808 38.831 64.7617 38.6137C64.7385 38.5268 64.7385 38.3964 64.7385 38.2878V32.0308H62.459V38.0923C62.459 38.2444 62.4707 38.5702 62.4822 38.6463C62.6442 40.2214 63.9633 40.7428 65.618 40.7428C67.2725 40.7428 68.6033 40.2323 68.7653 38.6463C68.7768 38.5594 68.7999 38.2444 68.7884 38.0923V32.0308ZM84.4323 35.7351V36.9734H85.358V38.2009C85.358 38.3095 85.358 38.429 85.3349 38.5268C85.3001 38.7549 85.0687 39.146 84.4092 39.146C83.7612 39.146 83.5298 38.7549 83.495 38.5268C83.4835 38.429 83.4719 38.3095 83.4719 38.2009V34.3338C83.4719 34.1925 83.4835 34.0513 83.5182 33.9318C83.5645 33.7254 83.7612 33.3235 84.4092 33.3235C85.1034 33.3235 85.2654 33.7472 85.3117 33.9318C85.3349 34.0513 85.3349 34.2577 85.3349 34.2577V34.7248H87.6028V34.4424C87.6028 34.4424 87.6143 34.1491 87.5912 33.8775C87.4177 32.3024 86.0176 31.8027 84.4207 31.8027C82.824 31.8027 81.4586 32.3133 81.2619 33.8884C81.2387 34.0296 81.2156 34.2903 81.2156 34.4532V38.0054C81.2156 38.1575 81.2156 38.277 81.2503 38.5594C81.4007 40.1019 82.824 40.645 84.4207 40.645C86.0291 40.645 87.4408 40.1019 87.5912 38.5594C87.6143 38.277 87.6258 38.1575 87.6258 38.0054V35.7351H84.4323Z" fill="#1428A0"/>
</g>
</g>
<g clip-path="url(#clip2_6_19)">
<g clip-path="url(#clip3_6_19)">
<path d="M26.8961 33.9679C26.8498 33.7941 26.8614 33.6203 26.8845 33.5226C26.9424 33.251 27.1391 32.9577 27.706 32.9577C28.2383 32.9577 28.5391 33.2618 28.5391 33.7289C28.5391 33.881 28.5391 34.2504 28.5391 34.2504H30.7839V33.6529C30.7955 31.8062 29.0251 31.5129 27.7523 31.5129C26.1555 31.5129 24.848 32.0126 24.605 33.3922C24.5356 33.7724 24.524 34.1091 24.6282 34.5328C25.0216 36.26 28.2267 36.7597 28.6896 37.8568C28.7821 38.0632 28.7474 38.3239 28.7127 38.4869C28.6433 38.7693 28.435 39.0626 27.8333 39.0626C27.2663 39.0626 26.9308 38.7584 26.9308 38.2913V37.4766H24.5009V38.1284C24.5009 40.0185 26.0861 40.5834 27.7755 40.5834C29.407 40.5834 30.7376 40.062 30.9575 38.6498C31.0616 37.922 30.9806 37.444 30.9459 37.2702C30.5756 35.4779 27.1506 34.9564 26.8961 33.9679ZM56.2053 33.9788C56.1705 33.8159 56.1822 33.6312 56.1937 33.5443C56.2632 33.2727 56.4483 32.9794 57.0152 32.9794C57.5359 32.9794 57.8367 33.2836 57.8367 33.7398C57.8367 33.8919 57.8367 34.2612 57.8367 34.2612H60.0585V33.6746C60.0585 31.8497 58.3228 31.5673 57.0615 31.5673C55.4763 31.5673 54.1804 32.0561 53.9374 33.4248C53.8796 33.7941 53.8564 34.1309 53.9606 34.5545C54.3423 36.26 57.5128 36.7597 57.9757 37.8459C58.0567 38.0523 58.0335 38.313 57.9872 38.4651C57.9178 38.7476 57.7211 39.03 57.1194 39.03C56.564 39.03 56.2168 38.7258 56.2168 38.2696V37.4549H53.8217V38.0958C53.8217 39.9642 55.3838 40.5291 57.0615 40.5291C58.6699 40.5291 60.0005 40.0076 60.2088 38.6172C60.313 37.8894 60.232 37.4223 60.1973 37.2485C59.8385 35.4887 56.4598 34.9673 56.2053 33.9788ZM76.6627 38.5955L74.5453 31.7845H71.2012V40.1597H73.4113L73.284 33.1315L75.5635 40.1597H78.7687V31.7845H76.5471L76.6627 38.5955ZM34.1511 31.7845L32.4733 40.2466H34.9032L36.1644 32.4146L37.391 40.2466H39.8092L38.1546 31.7845H34.1511ZM47.7585 31.7845L46.6245 38.4L45.4906 31.7845H41.811L41.6144 40.2466H43.8707L43.9285 32.4146L45.479 40.2466H47.7585L49.309 32.4146L49.3669 40.2466H51.6232L51.4265 31.7845H47.7585ZM68.702 31.7845H66.4224V38.0415C66.4224 38.1501 66.4224 38.2696 66.3994 38.3674C66.353 38.5738 66.1679 38.9865 65.5315 38.9865C64.9066 38.9865 64.7215 38.5846 64.6752 38.3674C64.652 38.2805 64.652 38.1501 64.652 38.0415V31.7845H62.3726V37.8459C62.3726 37.998 62.3842 38.3239 62.3957 38.4C62.5577 39.9751 63.8768 40.4965 65.5315 40.4965C67.1861 40.4965 68.5168 39.9859 68.6788 38.4C68.6903 38.313 68.7135 37.998 68.702 37.8459V31.7845ZM84.3459 35.4887V36.7271H85.2716V37.9546C85.2716 38.0632 85.2716 38.1827 85.2484 38.2805C85.2136 38.5086 84.9823 38.8996 84.3227 38.8996C83.6747 38.8996 83.4434 38.5086 83.4086 38.2805C83.3971 38.1827 83.3854 38.0632 83.3854 37.9546V34.0874C83.3854 33.9462 83.3971 33.805 83.4317 33.6855C83.478 33.4791 83.6747 33.0772 84.3227 33.0772C85.017 33.0772 85.1789 33.5008 85.2252 33.6855C85.2484 33.805 85.2484 34.0114 85.2484 34.0114V34.4785H87.5163V34.196C87.5163 34.196 87.5279 33.9028 87.5047 33.6312C87.3312 32.0561 85.9311 31.5564 84.3343 31.5564C82.7375 31.5564 81.3721 32.0669 81.1754 33.642C81.1523 33.7833 81.1291 34.044 81.1291 34.2069V37.759C81.1291 37.9111 81.1291 38.0306 81.1638 38.313C81.3143 39.8556 82.7375 40.3987 84.3343 40.3987C85.9426 40.3987 87.3544 39.8556 87.5047 38.313C87.5279 38.0306 87.5394 37.9111 87.5394 37.759V35.4887H84.3459Z" fill="#1428A0"/>
</g>
</g>
<defs>
<clipPath id="clip0_6_19">
<rect width="64" height="9.81577" fill="white" transform="translate(24.5873 31.7593)"/>
</clipPath>
<clipPath id="clip1_6_19">
<rect width="64" height="9.81578" fill="white" transform="translate(24.5873 31.7593)"/>
</clipPath>
<clipPath id="clip2_6_19">
<rect width="64" height="9.81577" fill="white" transform="translate(24.5009 31.5129)"/>
</clipPath>
<clipPath id="clip3_6_19">
<rect width="64" height="9.81578" fill="white" transform="translate(24.5009 31.5129)"/>
</clipPath>
</defs>
</svg>
