<svg width="112" height="73" viewBox="0 0 112 73" fill="none" xmlns="http://www.w3.org/2000/svg">
<rect x="0.5" y="0.5" width="111" height="72" rx="8" stroke="#F3F4F6"/>
<g clip-path="url(#clip0_6_72)">
<path fill-rule="evenodd" clip-rule="evenodd" d="M78.2513 41.3707H73.6115C71.0034 41.3707 70.7713 39.2238 70.7713 38.5662C70.7713 37.9105 71.0034 35.7617 73.6115 35.7617H78.2513C80.8593 35.7617 81.0914 37.9085 81.0914 38.5662C81.0895 39.2238 80.8593 41.3707 78.2513 41.3707ZM78.2513 33.4015H73.6115C68.7907 33.4015 68.3619 37.3575 68.3619 38.5681C68.3619 39.7768 68.7907 43.7347 73.6115 43.7347H78.2513C83.072 43.7347 83.5028 39.7788 83.5028 38.5681C83.5008 37.3575 83.072 33.4015 78.2513 33.4015Z" fill="#415FFF"/>
<path fill-rule="evenodd" clip-rule="evenodd" d="M67.4297 33.6425H65.925C65.2819 33.6425 65.1481 33.7531 64.9003 34.1224C64.6525 34.4917 60.351 41.0863 60.351 41.0863C60.2133 41.2897 60.0678 41.3707 59.8868 41.3707C59.7059 41.3707 59.5603 41.2877 59.4226 41.0863C59.4226 41.0863 55.1211 34.4917 54.8733 34.1224C54.6255 33.7531 54.4917 33.6425 53.8486 33.6425H52.3439C51.9978 33.6425 51.8404 33.915 52.0568 34.2468C52.2751 34.5786 57.1942 42.0797 57.1942 42.0797C57.9908 43.2568 58.5769 43.7328 59.8868 43.7328C61.1967 43.7328 61.7809 43.2568 62.5794 42.0797C62.5794 42.0797 67.4985 34.5786 67.7169 34.2468C67.9332 33.915 67.7759 33.6425 67.4297 33.6425Z" fill="#415FFF"/>
<path fill-rule="evenodd" clip-rule="evenodd" d="M47.4582 34.2824C47.4582 33.8242 47.6391 33.6425 48.0955 33.6425H49.2323C49.6886 33.6425 49.8696 33.8242 49.8696 34.2824V43.0929C49.8696 43.5511 49.6886 43.7328 49.2323 43.7328H48.0955C47.6391 43.7328 47.4582 43.5511 47.4582 43.0929V34.2824Z" fill="#415FFF"/>
<path fill-rule="evenodd" clip-rule="evenodd" d="M44.98 33.6425H43.4754C42.8322 33.6425 42.6984 33.7531 42.4506 34.1224C42.2028 34.4917 37.9013 41.0863 37.9013 41.0863C37.7636 41.2897 37.6181 41.3707 37.4371 41.3707C37.2562 41.3707 37.1106 41.2877 36.9729 41.0863C36.9729 41.0863 32.6714 34.4917 32.4236 34.1224C32.1758 33.7531 32.042 33.6425 31.3989 33.6425H29.8962C29.5107 33.6425 29.3927 33.915 29.609 34.2468C29.8273 34.5786 34.7465 42.0797 34.7465 42.0797C35.543 43.2568 36.1291 43.7328 37.4391 43.7328C38.749 43.7328 39.3332 43.2568 40.1317 42.0797C40.1317 42.0797 45.0508 34.5786 45.2691 34.2468C45.4855 33.915 45.3675 33.6425 44.98 33.6425Z" fill="#415FFF"/>
<path fill-rule="evenodd" clip-rule="evenodd" d="M47.354 31.626C46.9842 31.2547 46.9842 30.9585 47.354 30.5872L48.1466 29.7912C48.5164 29.4199 48.8114 29.4199 49.1812 29.7912L49.9738 30.5872C50.3436 30.9585 50.3436 31.2547 49.9738 31.626L49.1812 32.4219C48.8114 32.7932 48.5164 32.7932 48.1466 32.4219L47.354 31.626Z" fill="#415FFF"/>
</g>
<defs>
<clipPath id="clip0_6_72">
<rect width="54" height="14.22" fill="white" transform="translate(29.5009 29.5129)"/>
</clipPath>
</defs>
</svg>
